<?xml version="1.0" encoding="UTF-8"?>
<svg xmlns="http://www.w3.org/2000/svg" viewBox="0 0 64 64" width="512" height="512"><g id="Left-Right-Arrows-arrow"><path d="M56.537,46.156l-22-14A1,1,0,0,0,33,33v6.646l-24.706-7.6A1,1,0,0,0,7,33V61a1,1,0,0,0,1,1,1.022,1.022,0,0,0,.294-.044L33,54.354V61a1,1,0,0,0,1.537.844l22-14a1,1,0,0,0,0-1.688ZM35,59.178V53a1,1,0,0,0-1.294-.956L9,59.646V34.354l24.706,7.6A1,1,0,0,0,35,41V34.822L54.138,47Z"/><path d="M56.594,2.2a1,1,0,0,0-.888-.152L31,9.646V3a1,1,0,0,0-1.537-.844l-22,14a1,1,0,0,0,0,1.688l22,14A1,1,0,0,0,31,31V24.354l24.706,7.6A1.022,1.022,0,0,0,56,32a1,1,0,0,0,1-1V3A1,1,0,0,0,56.594,2.2ZM55,29.646l-24.706-7.6A1.022,1.022,0,0,0,30,22a1,1,0,0,0-1,1v6.178L9.862,17,29,4.822V11a1,1,0,0,0,1.294.956L55,4.354Z"/></g></svg>
